<svg width="30" height="30" viewBox="0 0 125 120" fill="none" xmlns="http://www.w3.org/2000/svg">
<path d="M81.3482 12.9848C79.0257 12.1002 76.451 13.2753 75.5975 15.6094C74.7441 17.9435 75.935 20.5529 78.2575 21.4375L81.3482 12.9848ZM78.2575 21.4375C100.846 30.0411 112.427 55.7645 103.939 78.9782L112.349 82.1818C122.499 54.423 108.703 23.4041 81.3482 12.9848L78.2575 21.4375ZM103.939 78.9782C95.4508 102.192 70.1892 113.882 47.601 105.279L44.5103 113.731C71.8652 124.15 102.199 109.94 112.349 82.1818L103.939 78.9782Z" fill="#020202" fill-opacity="0.42"/>
<path d="M47.8281 21.7318C50.1334 20.8032 51.2756 18.1713 50.3792 15.8533C49.4828 13.5353 46.8873 12.409 44.582 13.3376L47.8281 21.7318ZM80.0169 104.971C57.3986 114.082 31.8106 102.89 22.9092 79.8715L14.561 83.2342C25.2296 110.823 55.9686 124.359 83.2629 113.365L80.0169 104.971ZM22.9092 79.8715C14.0077 56.8527 25.2098 30.8425 47.8281 21.7318L44.582 13.3376C17.2877 24.3317 3.89232 55.6454 14.561 83.2342L22.9092 79.8715Z" fill="#020202" fill-opacity="0.42"/>
<path d="M63.5586 6.21094L61.9059 71.6549" stroke="#020202" stroke-opacity="0.42" stroke-width="7" stroke-linecap="round" stroke-linejoin="round"/>
</svg>
