<svg width="120" height="220" viewBox="0 0 229 338" fill="none" xmlns="http://www.w3.org/2000/svg">
<path d="M89.3846 36.5099C82.3517 37.9544 77.8214 44.8266 79.2658 51.8595C80.7103 58.8924 87.5825 63.4228 94.6154 61.9783L89.3846 36.5099ZM99 177.243L99.2427 164.245C95.7535 164.18 92.3845 165.52 89.8938 167.965C87.4032 170.41 86 173.753 86 177.243H99ZM86 262.244C86 269.424 91.8203 275.244 99 275.244C106.18 275.244 112 269.424 112 262.244H86ZM92 49.2441C94.6154 61.9783 94.6117 61.9791 94.6085 61.9797C94.608 61.9799 94.6051 61.9804 94.6041 61.9806C94.602 61.9811 94.6016 61.9812 94.6028 61.9809C94.6053 61.9804 94.6144 61.9786 94.6301 61.9754C94.6613 61.9692 94.7187 61.9578 94.8013 61.9417C94.9666 61.9096 95.2326 61.8589 95.5928 61.7931C96.3133 61.6616 97.4084 61.4704 98.8244 61.2488C101.66 60.805 105.76 60.2427 110.699 59.7913C120.663 58.8804 133.634 58.4601 146.379 60.1874C159.286 61.9366 170.714 65.7236 178.75 72.2188C186.22 78.2573 191.799 87.4373 192.001 102.911L217.999 102.571C217.701 79.795 208.905 63.1628 195.094 51.9988C181.848 41.2915 165.089 36.4854 149.871 34.4229C134.491 32.3384 119.399 32.8876 108.332 33.8992C102.755 34.409 98.0973 35.0461 94.8045 35.5615C93.156 35.8194 91.8439 36.0478 90.9233 36.2158C90.4629 36.2999 90.0999 36.369 89.8413 36.4192C89.712 36.4444 89.6087 36.4648 89.5323 36.4801C89.4941 36.4877 89.4626 36.4941 89.438 36.4991C89.4256 36.5016 89.415 36.5037 89.4061 36.5055C89.4017 36.5064 89.3963 36.5075 89.3941 36.508C89.3891 36.509 89.3846 36.5099 92 49.2441ZM192.001 102.911C192.207 118.645 186.987 129.629 179.367 137.773C171.451 146.233 160.336 152.237 148.186 156.373C136.114 160.482 123.817 162.477 114.401 163.425C109.729 163.895 105.85 164.099 103.175 164.186C101.839 164.229 100.808 164.243 100.134 164.247C99.7977 164.249 99.5507 164.248 99.3998 164.247C99.3244 164.246 99.273 164.245 99.2466 164.245C99.2333 164.245 99.2263 164.245 99.2257 164.245C99.2253 164.245 99.2266 164.245 99.2294 164.245C99.2308 164.245 99.2342 164.245 99.2349 164.245C99.2386 164.245 99.2427 164.245 99 177.243C98.7573 190.241 98.7622 190.241 98.7676 190.241C98.7699 190.241 98.7757 190.241 98.7804 190.241C98.7897 190.241 98.8007 190.241 98.8133 190.242C98.8386 190.242 98.8703 190.242 98.9085 190.243C98.9849 190.244 99.087 190.245 99.214 190.246C99.468 190.248 99.8217 190.249 100.268 190.246C101.162 190.242 102.429 190.224 104.017 190.172C107.189 190.07 111.662 189.832 117.005 189.294C127.62 188.226 142.011 185.94 156.564 180.986C171.039 176.059 186.487 168.218 198.352 155.538C210.513 142.541 218.293 125.087 217.999 102.571L192.001 102.911ZM86 177.243V262.244H112V177.243H86Z" fill="#FCFCFC"/>
<circle cx="98.5" cy="303.244" r="12.5" fill="#FCFCFC"/>
</svg>
